<?xml version="1.0" encoding="UTF-8" standalone="no"?>
<!DOCTYPE svg PUBLIC "-//W3C//DTD SVG 1.1//EN"
 "http://www.w3.org/Graphics/SVG/1.1/DTD/svg11.dtd">
<!-- Generated by graphviz version 5.0.0 (20220707.1540)
 -->
<!-- Title: dependencies Pages: 1 -->
<svg width="5316pt" height="247pt"
 viewBox="0.00 0.00 5316.00 246.80" xmlns="http://www.w3.org/2000/svg" xmlns:xlink="http://www.w3.org/1999/xlink">
<g id="graph0" class="graph" transform="scale(1 1) rotate(0) translate(4 242.8)">
<title>dependencies</title>
<polygon fill="white" stroke="transparent" points="-4,4 -4,-242.8 5312,-242.8 5312,4 -4,4"/>
<text text-anchor="middle" x="2654" y="-8.2" font-family="sans-serif" font-size="14.00">dependencies</text>
<g id="clust1" class="cluster">
<title>cluster_AppModule</title>
<polygon fill="none" stroke="black" stroke-dasharray="1,5" points="8,-32.8 8,-230.8 5300,-230.8 5300,-32.8 8,-32.8"/>
</g>
<g id="clust20" class="cluster">
<title>cluster_AppModule_imports</title>
<polygon fill="none" stroke="black" points="2496,-40.8 2496,-92.8 5292,-92.8 5292,-40.8 2496,-40.8"/>
</g>
<g id="clust22" class="cluster">
<title>cluster_AppModule_bootstrap</title>
<polygon fill="none" stroke="black" points="2584,-170.8 2584,-222.8 2708,-222.8 2708,-170.8 2584,-170.8"/>
</g>
<g id="clust2" class="cluster">
<title>cluster_AppModule_declarations</title>
<polygon fill="none" stroke="black" points="16,-40.8 16,-92.8 2488,-92.8 2488,-40.8 16,-40.8"/>
</g>
<!-- AppComponent -->
<g id="node1" class="node">
<title>AppComponent</title>
<polygon fill="#ffffb3" stroke="black" points="2479.94,-84.8 2374.06,-84.8 2374.06,-48.8 2479.94,-48.8 2479.94,-84.8"/>
<text text-anchor="middle" x="2427" y="-62.6" font-family="Times,serif" font-size="14.00">AppComponent</text>
</g>
<!-- AppModule -->
<g id="node18" class="node">
<title>AppModule</title>
<polygon fill="#8dd3c7" stroke="black" points="2687.66,-149.8 2684.66,-153.8 2663.66,-153.8 2660.66,-149.8 2604.34,-149.8 2604.34,-113.8 2687.66,-113.8 2687.66,-149.8"/>
<text text-anchor="middle" x="2646" y="-127.6" font-family="Times,serif" font-size="14.00">AppModule</text>
</g>
<!-- AppComponent&#45;&gt;AppModule -->
<g id="edge1" class="edge">
<title>AppComponent&#45;&gt;AppModule</title>
<path fill="none" stroke="black" d="M2427,-85.05C2427,-98.98 2427,-115.8 2427,-115.8 2427,-115.8 2594.29,-115.8 2594.29,-115.8"/>
<polygon fill="black" stroke="black" points="2594.29,-119.3 2604.29,-115.8 2594.29,-112.3 2594.29,-119.3"/>
</g>
<!-- UserComponent -->
<g id="node2" class="node">
<title>UserComponent</title>
<polygon fill="#ffffb3" stroke="black" points="2355.77,-84.8 2248.23,-84.8 2248.23,-48.8 2355.77,-48.8 2355.77,-84.8"/>
<text text-anchor="middle" x="2302" y="-62.6" font-family="Times,serif" font-size="14.00">UserComponent</text>
</g>
<!-- UserComponent&#45;&gt;AppModule -->
<g id="edge2" class="edge">
<title>UserComponent&#45;&gt;AppModule</title>
<path fill="none" stroke="black" d="M2302,-84.92C2302,-99.58 2302,-117.8 2302,-117.8 2302,-117.8 2594.16,-117.8 2594.16,-117.8"/>
<polygon fill="black" stroke="black" points="2594.16,-121.3 2604.16,-117.8 2594.16,-114.3 2594.16,-121.3"/>
</g>
<!-- ProfilComponent -->
<g id="node3" class="node">
<title>ProfilComponent</title>
<polygon fill="#ffffb3" stroke="black" points="2230.72,-84.8 2117.28,-84.8 2117.28,-48.8 2230.72,-48.8 2230.72,-84.8"/>
<text text-anchor="middle" x="2174" y="-62.6" font-family="Times,serif" font-size="14.00">ProfilComponent</text>
</g>
<!-- ProfilComponent&#45;&gt;AppModule -->
<g id="edge3" class="edge">
<title>ProfilComponent&#45;&gt;AppModule</title>
<path fill="none" stroke="black" d="M2174,-85.04C2174,-100.37 2174,-119.8 2174,-119.8 2174,-119.8 2594.11,-119.8 2594.11,-119.8"/>
<polygon fill="black" stroke="black" points="2594.11,-123.3 2604.11,-119.8 2594.11,-116.3 2594.11,-123.3"/>
</g>
<!-- AgePipe -->
<g id="node4" class="node">
<title>AgePipe</title>
<polygon fill="#ffffb3" stroke="black" points="2099.21,-84.8 2034.79,-84.8 2034.79,-48.8 2099.21,-48.8 2099.21,-84.8"/>
<text text-anchor="middle" x="2067" y="-62.6" font-family="Times,serif" font-size="14.00">AgePipe</text>
</g>
<!-- AgePipe&#45;&gt;AppModule -->
<g id="edge4" class="edge">
<title>AgePipe&#45;&gt;AppModule</title>
<path fill="none" stroke="black" d="M2067,-84.81C2067,-100.85 2067,-121.8 2067,-121.8 2067,-121.8 2593.89,-121.8 2593.89,-121.8"/>
<polygon fill="black" stroke="black" points="2593.89,-125.3 2603.89,-121.8 2593.89,-118.3 2593.89,-125.3"/>
</g>
<!-- RegisterComponent -->
<g id="node5" class="node">
<title>RegisterComponent</title>
<polygon fill="#ffffb3" stroke="black" points="2016.99,-84.8 1889.01,-84.8 1889.01,-48.8 2016.99,-48.8 2016.99,-84.8"/>
<text text-anchor="middle" x="1953" y="-62.6" font-family="Times,serif" font-size="14.00">RegisterComponent</text>
</g>
<!-- RegisterComponent&#45;&gt;AppModule -->
<g id="edge5" class="edge">
<title>RegisterComponent&#45;&gt;AppModule</title>
<path fill="none" stroke="black" d="M1953,-84.84C1953,-101.53 1953,-123.8 1953,-123.8 1953,-123.8 2594.21,-123.8 2594.21,-123.8"/>
<polygon fill="black" stroke="black" points="2594.21,-127.3 2604.21,-123.8 2594.21,-120.3 2594.21,-127.3"/>
</g>
<!-- UserModalComponent -->
<g id="node6" class="node">
<title>UserModalComponent</title>
<polygon fill="#ffffb3" stroke="black" points="1871.32,-84.8 1726.68,-84.8 1726.68,-48.8 1871.32,-48.8 1871.32,-84.8"/>
<text text-anchor="middle" x="1799" y="-62.6" font-family="Times,serif" font-size="14.00">UserModalComponent</text>
</g>
<!-- UserModalComponent&#45;&gt;AppModule -->
<g id="edge6" class="edge">
<title>UserModalComponent&#45;&gt;AppModule</title>
<path fill="none" stroke="black" d="M1799,-84.82C1799,-102.17 1799,-125.8 1799,-125.8 1799,-125.8 2594.29,-125.8 2594.29,-125.8"/>
<polygon fill="black" stroke="black" points="2594.29,-129.3 2604.29,-125.8 2594.29,-122.3 2594.29,-129.3"/>
</g>
<!-- DirectoryComponent -->
<g id="node7" class="node">
<title>DirectoryComponent</title>
<polygon fill="#ffffb3" stroke="black" points="1708.47,-84.8 1573.53,-84.8 1573.53,-48.8 1708.47,-48.8 1708.47,-84.8"/>
<text text-anchor="middle" x="1641" y="-62.6" font-family="Times,serif" font-size="14.00">DirectoryComponent</text>
</g>
<!-- DirectoryComponent&#45;&gt;AppModule -->
<g id="edge7" class="edge">
<title>DirectoryComponent&#45;&gt;AppModule</title>
<path fill="none" stroke="black" d="M1641,-85.1C1641,-103.07 1641,-127.8 1641,-127.8 1641,-127.8 2594.1,-127.8 2594.1,-127.8"/>
<polygon fill="black" stroke="black" points="2594.1,-131.3 2604.1,-127.8 2594.1,-124.3 2594.1,-131.3"/>
</g>
<!-- DirectoryModalComponent -->
<g id="node8" class="node">
<title>DirectoryModalComponent</title>
<polygon fill="#ffffb3" stroke="black" points="1555.53,-84.8 1384.47,-84.8 1384.47,-48.8 1555.53,-48.8 1555.53,-84.8"/>
<text text-anchor="middle" x="1470" y="-62.6" font-family="Times,serif" font-size="14.00">DirectoryModalComponent</text>
</g>
<!-- DirectoryModalComponent&#45;&gt;AppModule -->
<g id="edge8" class="edge">
<title>DirectoryModalComponent&#45;&gt;AppModule</title>
<path fill="none" stroke="black" d="M1470,-85.02C1470,-103.63 1470,-129.8 1470,-129.8 1470,-129.8 2594.15,-129.8 2594.15,-129.8"/>
<polygon fill="black" stroke="black" points="2594.15,-133.3 2604.15,-129.8 2594.15,-126.3 2594.15,-133.3"/>
</g>
<!-- WeatherComponent -->
<g id="node9" class="node">
<title>WeatherComponent</title>
<polygon fill="#ffffb3" stroke="black" points="1366.24,-84.8 1237.76,-84.8 1237.76,-48.8 1366.24,-48.8 1366.24,-84.8"/>
<text text-anchor="middle" x="1302" y="-62.6" font-family="Times,serif" font-size="14.00">WeatherComponent</text>
</g>
<!-- WeatherComponent&#45;&gt;AppModule -->
<g id="edge9" class="edge">
<title>WeatherComponent&#45;&gt;AppModule</title>
<path fill="none" stroke="black" d="M1302,-84.91C1302,-104.14 1302,-131.8 1302,-131.8 1302,-131.8 2594.3,-131.8 2594.3,-131.8"/>
<polygon fill="black" stroke="black" points="2594.3,-135.3 2604.3,-131.8 2594.3,-128.3 2594.3,-135.3"/>
</g>
<!-- LoginComponent -->
<g id="node10" class="node">
<title>LoginComponent</title>
<polygon fill="#ffffb3" stroke="black" points="1219.27,-84.8 1104.73,-84.8 1104.73,-48.8 1219.27,-48.8 1219.27,-84.8"/>
<text text-anchor="middle" x="1162" y="-62.6" font-family="Times,serif" font-size="14.00">LoginComponent</text>
</g>
<!-- LoginComponent&#45;&gt;AppModule -->
<g id="edge10" class="edge">
<title>LoginComponent&#45;&gt;AppModule</title>
<path fill="none" stroke="black" d="M1162,-85.11C1162,-104.95 1162,-133.8 1162,-133.8 1162,-133.8 2593.98,-133.8 2593.98,-133.8"/>
<polygon fill="black" stroke="black" points="2593.98,-137.3 2603.98,-133.8 2593.98,-130.3 2593.98,-137.3"/>
</g>
<!-- WeatherModalComponent -->
<g id="node11" class="node">
<title>WeatherModalComponent</title>
<polygon fill="#ffffb3" stroke="black" points="1086.79,-84.8 921.21,-84.8 921.21,-48.8 1086.79,-48.8 1086.79,-84.8"/>
<text text-anchor="middle" x="1004" y="-62.6" font-family="Times,serif" font-size="14.00">WeatherModalComponent</text>
</g>
<!-- WeatherModalComponent&#45;&gt;AppModule -->
<g id="edge11" class="edge">
<title>WeatherModalComponent&#45;&gt;AppModule</title>
<path fill="none" stroke="black" d="M1004,-84.93C1004,-105.37 1004,-135.8 1004,-135.8 1004,-135.8 2594.18,-135.8 2594.18,-135.8"/>
<polygon fill="black" stroke="black" points="2594.18,-139.3 2604.18,-135.8 2594.18,-132.3 2594.18,-139.3"/>
</g>
<!-- OverviewComponent -->
<g id="node12" class="node">
<title>OverviewComponent</title>
<polygon fill="#ffffb3" stroke="black" points="903.03,-84.8 766.97,-84.8 766.97,-48.8 903.03,-48.8 903.03,-84.8"/>
<text text-anchor="middle" x="835" y="-62.6" font-family="Times,serif" font-size="14.00">OverviewComponent</text>
</g>
<!-- OverviewComponent&#45;&gt;AppModule -->
<g id="edge12" class="edge">
<title>OverviewComponent&#45;&gt;AppModule</title>
<path fill="none" stroke="black" d="M835,-85.08C835,-106.12 835,-137.8 835,-137.8 835,-137.8 2594.34,-137.8 2594.34,-137.8"/>
<polygon fill="black" stroke="black" points="2594.34,-141.3 2604.34,-137.8 2594.34,-134.3 2594.34,-141.3"/>
</g>
<!-- ChatroomComponent -->
<g id="node13" class="node">
<title>ChatroomComponent</title>
<polygon fill="#ffffb3" stroke="black" points="748.82,-84.8 611.18,-84.8 611.18,-48.8 748.82,-48.8 748.82,-84.8"/>
<text text-anchor="middle" x="680" y="-62.6" font-family="Times,serif" font-size="14.00">ChatroomComponent</text>
</g>
<!-- ChatroomComponent&#45;&gt;AppModule -->
<g id="edge13" class="edge">
<title>ChatroomComponent&#45;&gt;AppModule</title>
<path fill="none" stroke="black" d="M680,-84.84C680,-106.46 680,-139.8 680,-139.8 680,-139.8 2594.03,-139.8 2594.03,-139.8"/>
<polygon fill="black" stroke="black" points="2594.03,-143.3 2604.03,-139.8 2594.03,-136.3 2594.03,-143.3"/>
</g>
<!-- ChatComponent -->
<g id="node14" class="node">
<title>ChatComponent</title>
<polygon fill="#ffffb3" stroke="black" points="592.77,-84.8 485.23,-84.8 485.23,-48.8 592.77,-48.8 592.77,-84.8"/>
<text text-anchor="middle" x="539" y="-62.6" font-family="Times,serif" font-size="14.00">ChatComponent</text>
</g>
<!-- ChatComponent&#45;&gt;AppModule -->
<g id="edge14" class="edge">
<title>ChatComponent&#45;&gt;AppModule</title>
<path fill="none" stroke="black" d="M539,-84.96C539,-107.15 539,-141.8 539,-141.8 539,-141.8 2593.91,-141.8 2593.91,-141.8"/>
<polygon fill="black" stroke="black" points="2593.91,-145.3 2603.91,-141.8 2593.91,-138.3 2593.91,-145.3"/>
</g>
<!-- TopbarchatComponent -->
<g id="node15" class="node">
<title>TopbarchatComponent</title>
<polygon fill="#ffffb3" stroke="black" points="467.58,-84.8 322.42,-84.8 322.42,-48.8 467.58,-48.8 467.58,-84.8"/>
<text text-anchor="middle" x="395" y="-62.6" font-family="Times,serif" font-size="14.00">TopbarchatComponent</text>
</g>
<!-- TopbarchatComponent&#45;&gt;AppModule -->
<g id="edge15" class="edge">
<title>TopbarchatComponent&#45;&gt;AppModule</title>
<path fill="none" stroke="black" d="M395,-85.05C395,-107.82 395,-143.8 395,-143.8 395,-143.8 2594.03,-143.8 2594.03,-143.8"/>
<polygon fill="black" stroke="black" points="2594.03,-147.3 2604.03,-143.8 2594.03,-140.3 2594.03,-147.3"/>
</g>
<!-- ChatModalComponent -->
<g id="node16" class="node">
<title>ChatModalComponent</title>
<polygon fill="#ffffb3" stroke="black" points="304.32,-84.8 159.68,-84.8 159.68,-48.8 304.32,-48.8 304.32,-84.8"/>
<text text-anchor="middle" x="232" y="-62.6" font-family="Times,serif" font-size="14.00">ChatModalComponent</text>
</g>
<!-- ChatModalComponent&#45;&gt;AppModule -->
<g id="edge16" class="edge">
<title>ChatModalComponent&#45;&gt;AppModule</title>
<path fill="none" stroke="black" d="M232,-85.12C232,-108.46 232,-145.8 232,-145.8 232,-145.8 2594.1,-145.8 2594.1,-145.8"/>
<polygon fill="black" stroke="black" points="2594.1,-149.3 2604.1,-145.8 2594.1,-142.3 2594.1,-149.3"/>
</g>
<!-- FinderComponent -->
<g id="node17" class="node">
<title>FinderComponent</title>
<polygon fill="#ffffb3" stroke="black" points="141.88,-84.8 24.12,-84.8 24.12,-48.8 141.88,-48.8 141.88,-84.8"/>
<text text-anchor="middle" x="83" y="-62.6" font-family="Times,serif" font-size="14.00">FinderComponent</text>
</g>
<!-- FinderComponent&#45;&gt;AppModule -->
<g id="edge17" class="edge">
<title>FinderComponent&#45;&gt;AppModule</title>
<path fill="none" stroke="black" d="M83,-85.18C83,-109.08 83,-147.8 83,-147.8 83,-147.8 2594.18,-147.8 2594.18,-147.8"/>
<polygon fill="black" stroke="black" points="2594.18,-151.3 2604.18,-147.8 2594.18,-144.3 2594.18,-151.3"/>
</g>
<!-- AppComponent  -->
<g id="node38" class="node">
<title>AppComponent </title>
<polygon fill="#80b1d3" stroke="black" points="2700.44,-214.8 2591.56,-214.8 2591.56,-178.8 2700.44,-178.8 2700.44,-214.8"/>
<text text-anchor="middle" x="2646" y="-192.6" font-family="Times,serif" font-size="14.00">AppComponent </text>
</g>
<!-- AppModule&#45;&gt;AppComponent  -->
<g id="edge37" class="edge">
<title>AppModule&#45;&gt;AppComponent </title>
<path fill="none" stroke="black" stroke-dasharray="1,5" d="M2646,-149.91C2646,-149.91 2646,-168.79 2646,-168.79"/>
<polygon fill="black" stroke="black" points="2642.5,-168.79 2646,-178.79 2649.5,-168.79 2642.5,-168.79"/>
</g>
<!-- BrowserModule -->
<g id="node19" class="node">
<title>BrowserModule</title>
<polygon fill="#8dd3c7" stroke="black" points="5284.49,-84.8 5281.49,-88.8 5260.49,-88.8 5257.49,-84.8 5177.51,-84.8 5177.51,-48.8 5284.49,-48.8 5284.49,-84.8"/>
<text text-anchor="middle" x="5231" y="-62.6" font-family="Times,serif" font-size="14.00">BrowserModule</text>
</g>
<!-- BrowserModule&#45;&gt;AppModule -->
<g id="edge18" class="edge">
<title>BrowserModule&#45;&gt;AppModule</title>
<path fill="none" stroke="black" d="M5231,-85.18C5231,-109.08 5231,-147.8 5231,-147.8 5231,-147.8 2697.91,-147.8 2697.91,-147.8"/>
<polygon fill="black" stroke="black" points="2697.91,-144.3 2687.91,-147.8 2697.91,-151.3 2697.91,-144.3"/>
</g>
<!-- AppRoutingModule -->
<g id="node20" class="node">
<title>AppRoutingModule</title>
<polygon fill="#8dd3c7" stroke="black" points="5159.28,-84.8 5156.28,-88.8 5135.28,-88.8 5132.28,-84.8 5030.72,-84.8 5030.72,-48.8 5159.28,-48.8 5159.28,-84.8"/>
<text text-anchor="middle" x="5095" y="-62.6" font-family="Times,serif" font-size="14.00">AppRoutingModule</text>
</g>
<!-- AppRoutingModule&#45;&gt;AppModule -->
<g id="edge19" class="edge">
<title>AppRoutingModule&#45;&gt;AppModule</title>
<path fill="none" stroke="black" d="M5095,-85.12C5095,-108.46 5095,-145.8 5095,-145.8 5095,-145.8 2697.74,-145.8 2697.74,-145.8"/>
<polygon fill="black" stroke="black" points="2697.74,-142.3 2687.74,-145.8 2697.74,-149.3 2697.74,-142.3"/>
</g>
<!-- BrowserAnimationsModule -->
<g id="node21" class="node">
<title>BrowserAnimationsModule</title>
<polygon fill="#8dd3c7" stroke="black" points="5012.32,-84.8 5009.32,-88.8 4988.32,-88.8 4985.32,-84.8 4839.68,-84.8 4839.68,-48.8 5012.32,-48.8 5012.32,-84.8"/>
<text text-anchor="middle" x="4926" y="-62.6" font-family="Times,serif" font-size="14.00">BrowserAnimationsModule</text>
</g>
<!-- BrowserAnimationsModule&#45;&gt;AppModule -->
<g id="edge20" class="edge">
<title>BrowserAnimationsModule&#45;&gt;AppModule</title>
<path fill="none" stroke="black" d="M4926,-85.05C4926,-107.82 4926,-143.8 4926,-143.8 4926,-143.8 2698.01,-143.8 2698.01,-143.8"/>
<polygon fill="black" stroke="black" points="2698.01,-140.3 2688.01,-143.8 2698.01,-147.3 2698.01,-140.3"/>
</g>
<!-- HttpClientModule -->
<g id="node22" class="node">
<title>HttpClientModule</title>
<polygon fill="#8dd3c7" stroke="black" points="4822.16,-84.8 4819.16,-88.8 4798.16,-88.8 4795.16,-84.8 4703.84,-84.8 4703.84,-48.8 4822.16,-48.8 4822.16,-84.8"/>
<text text-anchor="middle" x="4763" y="-62.6" font-family="Times,serif" font-size="14.00">HttpClientModule</text>
</g>
<!-- HttpClientModule&#45;&gt;AppModule -->
<g id="edge21" class="edge">
<title>HttpClientModule&#45;&gt;AppModule</title>
<path fill="none" stroke="black" d="M4763,-84.96C4763,-107.15 4763,-141.8 4763,-141.8 4763,-141.8 2697.81,-141.8 2697.81,-141.8"/>
<polygon fill="black" stroke="black" points="2697.81,-138.3 2687.81,-141.8 2697.81,-145.3 2697.81,-138.3"/>
</g>
<!-- MatCardModule -->
<g id="node23" class="node">
<title>MatCardModule</title>
<polygon fill="#8dd3c7" stroke="black" points="4685.82,-84.8 4682.82,-88.8 4661.82,-88.8 4658.82,-84.8 4576.18,-84.8 4576.18,-48.8 4685.82,-48.8 4685.82,-84.8"/>
<text text-anchor="middle" x="4631" y="-62.6" font-family="Times,serif" font-size="14.00">MatCardModule</text>
</g>
<!-- MatCardModule&#45;&gt;AppModule -->
<g id="edge22" class="edge">
<title>MatCardModule&#45;&gt;AppModule</title>
<path fill="none" stroke="black" d="M4631,-84.84C4631,-106.46 4631,-139.8 4631,-139.8 4631,-139.8 2697.92,-139.8 2697.92,-139.8"/>
<polygon fill="black" stroke="black" points="2697.92,-136.3 2687.92,-139.8 2697.92,-143.3 2697.92,-136.3"/>
</g>
<!-- MatIconModule -->
<g id="node24" class="node">
<title>MatIconModule</title>
<polygon fill="#8dd3c7" stroke="black" points="4558.48,-84.8 4555.48,-88.8 4534.48,-88.8 4531.48,-84.8 4451.52,-84.8 4451.52,-48.8 4558.48,-48.8 4558.48,-84.8"/>
<text text-anchor="middle" x="4505" y="-62.6" font-family="Times,serif" font-size="14.00">MatIconModule</text>
</g>
<!-- MatIconModule&#45;&gt;AppModule -->
<g id="edge23" class="edge">
<title>MatIconModule&#45;&gt;AppModule</title>
<path fill="none" stroke="black" d="M4505,-85.08C4505,-106.12 4505,-137.8 4505,-137.8 4505,-137.8 2697.88,-137.8 2697.88,-137.8"/>
<polygon fill="black" stroke="black" points="2697.88,-134.3 2687.88,-137.8 2697.88,-141.3 2697.88,-134.3"/>
</g>
<!-- MatInputModule -->
<g id="node25" class="node">
<title>MatInputModule</title>
<polygon fill="#8dd3c7" stroke="black" points="4433.66,-84.8 4430.66,-88.8 4409.66,-88.8 4406.66,-84.8 4322.34,-84.8 4322.34,-48.8 4433.66,-48.8 4433.66,-84.8"/>
<text text-anchor="middle" x="4378" y="-62.6" font-family="Times,serif" font-size="14.00">MatInputModule</text>
</g>
<!-- MatInputModule&#45;&gt;AppModule -->
<g id="edge24" class="edge">
<title>MatInputModule&#45;&gt;AppModule</title>
<path fill="none" stroke="black" d="M4378,-84.93C4378,-105.37 4378,-135.8 4378,-135.8 4378,-135.8 2697.96,-135.8 2697.96,-135.8"/>
<polygon fill="black" stroke="black" points="2697.96,-132.3 2687.96,-135.8 2697.96,-139.3 2697.96,-132.3"/>
</g>
<!-- MatDatepickerModule -->
<g id="node26" class="node">
<title>MatDatepickerModule</title>
<polygon fill="#8dd3c7" stroke="black" points="4303.51,-84.8 4300.51,-88.8 4279.51,-88.8 4276.51,-84.8 4160.49,-84.8 4160.49,-48.8 4303.51,-48.8 4303.51,-84.8"/>
<text text-anchor="middle" x="4232" y="-62.6" font-family="Times,serif" font-size="14.00">MatDatepickerModule</text>
</g>
<!-- MatDatepickerModule&#45;&gt;AppModule -->
<g id="edge25" class="edge">
<title>MatDatepickerModule&#45;&gt;AppModule</title>
<path fill="none" stroke="black" d="M4232,-85.11C4232,-104.95 4232,-133.8 4232,-133.8 4232,-133.8 2698.01,-133.8 2698.01,-133.8"/>
<polygon fill="black" stroke="black" points="2698.01,-130.3 2688.01,-133.8 2698.01,-137.3 2698.01,-130.3"/>
</g>
<!-- MatFormFieldModule -->
<g id="node27" class="node">
<title>MatFormFieldModule</title>
<polygon fill="#8dd3c7" stroke="black" points="4142.72,-84.8 4139.72,-88.8 4118.72,-88.8 4115.72,-84.8 4001.28,-84.8 4001.28,-48.8 4142.72,-48.8 4142.72,-84.8"/>
<text text-anchor="middle" x="4072" y="-62.6" font-family="Times,serif" font-size="14.00">MatFormFieldModule</text>
</g>
<!-- MatFormFieldModule&#45;&gt;AppModule -->
<g id="edge26" class="edge">
<title>MatFormFieldModule&#45;&gt;AppModule</title>
<path fill="none" stroke="black" d="M4072,-84.91C4072,-104.14 4072,-131.8 4072,-131.8 4072,-131.8 2697.91,-131.8 2697.91,-131.8"/>
<polygon fill="black" stroke="black" points="2697.91,-128.3 2687.91,-131.8 2697.91,-135.3 2697.91,-128.3"/>
</g>
<!-- ReactiveFormsModule -->
<g id="node28" class="node">
<title>ReactiveFormsModule</title>
<polygon fill="#8dd3c7" stroke="black" points="3983.31,-84.8 3980.31,-88.8 3959.31,-88.8 3956.31,-84.8 3838.69,-84.8 3838.69,-48.8 3983.31,-48.8 3983.31,-84.8"/>
<text text-anchor="middle" x="3911" y="-62.6" font-family="Times,serif" font-size="14.00">ReactiveFormsModule</text>
</g>
<!-- ReactiveFormsModule&#45;&gt;AppModule -->
<g id="edge27" class="edge">
<title>ReactiveFormsModule&#45;&gt;AppModule</title>
<path fill="none" stroke="black" d="M3911,-85.02C3911,-103.63 3911,-129.8 3911,-129.8 3911,-129.8 2697.73,-129.8 2697.73,-129.8"/>
<polygon fill="black" stroke="black" points="2697.73,-126.3 2687.73,-129.8 2697.73,-133.3 2697.73,-126.3"/>
</g>
<!-- FormsModule -->
<g id="node29" class="node">
<title>FormsModule</title>
<polygon fill="#8dd3c7" stroke="black" points="3820.84,-84.8 3817.84,-88.8 3796.84,-88.8 3793.84,-84.8 3725.16,-84.8 3725.16,-48.8 3820.84,-48.8 3820.84,-84.8"/>
<text text-anchor="middle" x="3773" y="-62.6" font-family="Times,serif" font-size="14.00">FormsModule</text>
</g>
<!-- FormsModule&#45;&gt;AppModule -->
<g id="edge28" class="edge">
<title>FormsModule&#45;&gt;AppModule</title>
<path fill="none" stroke="black" d="M3773,-85.1C3773,-103.07 3773,-127.8 3773,-127.8 3773,-127.8 2697.78,-127.8 2697.78,-127.8"/>
<polygon fill="black" stroke="black" points="2697.78,-124.3 2687.78,-127.8 2697.78,-131.3 2697.78,-124.3"/>
</g>
<!-- MatAutocompleteModule -->
<g id="node30" class="node">
<title>MatAutocompleteModule</title>
<polygon fill="#8dd3c7" stroke="black" points="3707.91,-84.8 3704.91,-88.8 3683.91,-88.8 3680.91,-84.8 3546.09,-84.8 3546.09,-48.8 3707.91,-48.8 3707.91,-84.8"/>
<text text-anchor="middle" x="3627" y="-62.6" font-family="Times,serif" font-size="14.00">MatAutocompleteModule</text>
</g>
<!-- MatAutocompleteModule&#45;&gt;AppModule -->
<g id="edge29" class="edge">
<title>MatAutocompleteModule&#45;&gt;AppModule</title>
<path fill="none" stroke="black" d="M3627,-84.82C3627,-102.17 3627,-125.8 3627,-125.8 3627,-125.8 2697.84,-125.8 2697.84,-125.8"/>
<polygon fill="black" stroke="black" points="2697.84,-122.3 2687.84,-125.8 2697.84,-129.3 2697.84,-122.3"/>
</g>
<!-- MatButtonModule -->
<g id="node31" class="node">
<title>MatButtonModule</title>
<polygon fill="#8dd3c7" stroke="black" points="3528.22,-84.8 3525.22,-88.8 3504.22,-88.8 3501.22,-84.8 3407.78,-84.8 3407.78,-48.8 3528.22,-48.8 3528.22,-84.8"/>
<text text-anchor="middle" x="3468" y="-62.6" font-family="Times,serif" font-size="14.00">MatButtonModule</text>
</g>
<!-- MatButtonModule&#45;&gt;AppModule -->
<g id="edge30" class="edge">
<title>MatButtonModule&#45;&gt;AppModule</title>
<path fill="none" stroke="black" d="M3468,-84.84C3468,-101.53 3468,-123.8 3468,-123.8 3468,-123.8 2697.89,-123.8 2697.89,-123.8"/>
<polygon fill="black" stroke="black" points="2697.89,-120.3 2687.89,-123.8 2697.89,-127.3 2697.89,-120.3"/>
</g>
<!-- CommonModule -->
<g id="node32" class="node">
<title>CommonModule</title>
<polygon fill="#8dd3c7" stroke="black" points="3389.67,-84.8 3386.67,-88.8 3365.67,-88.8 3362.67,-84.8 3278.33,-84.8 3278.33,-48.8 3389.67,-48.8 3389.67,-84.8"/>
<text text-anchor="middle" x="3334" y="-62.6" font-family="Times,serif" font-size="14.00">CommonModule</text>
</g>
<!-- CommonModule&#45;&gt;AppModule -->
<g id="edge31" class="edge">
<title>CommonModule&#45;&gt;AppModule</title>
<path fill="none" stroke="black" d="M3334,-84.81C3334,-100.85 3334,-121.8 3334,-121.8 3334,-121.8 2697.74,-121.8 2697.74,-121.8"/>
<polygon fill="black" stroke="black" points="2697.74,-118.3 2687.74,-121.8 2697.74,-125.3 2697.74,-118.3"/>
</g>
<!-- MatDialogModule -->
<g id="node33" class="node">
<title>MatDialogModule</title>
<polygon fill="#8dd3c7" stroke="black" points="3260.21,-84.8 3257.21,-88.8 3236.21,-88.8 3233.21,-84.8 3139.79,-84.8 3139.79,-48.8 3260.21,-48.8 3260.21,-84.8"/>
<text text-anchor="middle" x="3200" y="-62.6" font-family="Times,serif" font-size="14.00">MatDialogModule</text>
</g>
<!-- MatDialogModule&#45;&gt;AppModule -->
<g id="edge32" class="edge">
<title>MatDialogModule&#45;&gt;AppModule</title>
<path fill="none" stroke="black" d="M3200,-85.04C3200,-100.37 3200,-119.8 3200,-119.8 3200,-119.8 2698.09,-119.8 2698.09,-119.8"/>
<polygon fill="black" stroke="black" points="2698.09,-116.3 2688.09,-119.8 2698.09,-123.3 2698.09,-116.3"/>
</g>
<!-- MatProgressSpinnerModule -->
<g id="node34" class="node">
<title>MatProgressSpinnerModule</title>
<polygon fill="#8dd3c7" stroke="black" points="3121.88,-84.8 3118.88,-88.8 3097.88,-88.8 3094.88,-84.8 2948.12,-84.8 2948.12,-48.8 3121.88,-48.8 3121.88,-84.8"/>
<text text-anchor="middle" x="3035" y="-62.6" font-family="Times,serif" font-size="14.00">MatProgressSpinnerModule</text>
</g>
<!-- MatProgressSpinnerModule&#45;&gt;AppModule -->
<g id="edge33" class="edge">
<title>MatProgressSpinnerModule&#45;&gt;AppModule</title>
<path fill="none" stroke="black" d="M3035,-84.92C3035,-99.58 3035,-117.8 3035,-117.8 3035,-117.8 2698,-117.8 2698,-117.8"/>
<polygon fill="black" stroke="black" points="2698,-114.3 2688,-117.8 2698,-121.3 2698,-114.3"/>
</g>
<!-- MatSidenavModule -->
<g id="node35" class="node">
<title>MatSidenavModule</title>
<polygon fill="#8dd3c7" stroke="black" points="2929.71,-84.8 2926.71,-88.8 2905.71,-88.8 2902.71,-84.8 2802.29,-84.8 2802.29,-48.8 2929.71,-48.8 2929.71,-84.8"/>
<text text-anchor="middle" x="2866" y="-62.6" font-family="Times,serif" font-size="14.00">MatSidenavModule</text>
</g>
<!-- MatSidenavModule&#45;&gt;AppModule -->
<g id="edge34" class="edge">
<title>MatSidenavModule&#45;&gt;AppModule</title>
<path fill="none" stroke="black" d="M2866,-85.05C2866,-98.98 2866,-115.8 2866,-115.8 2866,-115.8 2697.9,-115.8 2697.9,-115.8"/>
<polygon fill="black" stroke="black" points="2697.9,-112.3 2687.9,-115.8 2697.9,-119.3 2697.9,-112.3"/>
</g>
<!-- MatToolbarModule -->
<g id="node36" class="node">
<title>MatToolbarModule</title>
<polygon fill="#8dd3c7" stroke="black" points="2784.42,-84.8 2781.42,-88.8 2760.42,-88.8 2757.42,-84.8 2657.58,-84.8 2657.58,-48.8 2784.42,-48.8 2784.42,-84.8"/>
<text text-anchor="middle" x="2721" y="-62.6" font-family="Times,serif" font-size="14.00">MatToolbarModule</text>
</g>
<!-- MatToolbarModule&#45;&gt;AppModule -->
<g id="edge35" class="edge">
<title>MatToolbarModule&#45;&gt;AppModule</title>
<path fill="none" stroke="black" d="M2672.81,-84.91C2672.81,-84.91 2672.81,-103.79 2672.81,-103.79"/>
<polygon fill="black" stroke="black" points="2669.31,-103.79 2672.81,-113.79 2676.31,-103.79 2669.31,-103.79"/>
</g>
<!-- MatSnackBarModule -->
<g id="node37" class="node">
<title>MatSnackBarModule</title>
<polygon fill="#8dd3c7" stroke="black" points="2640.03,-84.8 2637.03,-88.8 2616.03,-88.8 2613.03,-84.8 2503.97,-84.8 2503.97,-48.8 2640.03,-48.8 2640.03,-84.8"/>
<text text-anchor="middle" x="2572" y="-62.6" font-family="Times,serif" font-size="14.00">MatSnackBarModule</text>
</g>
<!-- MatSnackBarModule&#45;&gt;AppModule -->
<g id="edge36" class="edge">
<title>MatSnackBarModule&#45;&gt;AppModule</title>
<path fill="none" stroke="black" d="M2622.22,-84.91C2622.22,-84.91 2622.22,-103.79 2622.22,-103.79"/>
<polygon fill="black" stroke="black" points="2618.72,-103.79 2622.22,-113.79 2625.72,-103.79 2618.72,-103.79"/>
</g>
</g>
</svg>
