<?xml version="1.0" encoding="UTF-8" standalone="no"?>
<!DOCTYPE svg PUBLIC "-//W3C//DTD SVG 1.1//EN"
 "http://www.w3.org/Graphics/SVG/1.1/DTD/svg11.dtd">
<!-- Generated by graphviz version 5.0.0 (20220707.1540)
 -->
<!-- Title: dependencies Pages: 1 -->
<svg width="5316pt" height="247pt"
 viewBox="0.00 0.00 5316.00 246.80" xmlns="http://www.w3.org/2000/svg" xmlns:xlink="http://www.w3.org/1999/xlink">
<g id="graph0" class="graph" transform="scale(1 1) rotate(0) translate(4 242.8)">
<title>dependencies</title>
<polygon fill="white" stroke="transparent" points="-4,4 -4,-242.8 5312,-242.8 5312,4 -4,4"/>
<text text-anchor="middle" x="2654" y="-8.2" font-family="sans-serif" font-size="14.00">dependencies</text>
<g id="clust1" class="cluster">
<title>cluster_AppModule</title>
<polygon fill="none" stroke="black" stroke-dasharray="1,5" points="8,-32.8 8,-230.8 5300,-230.8 5300,-32.8 8,-32.8"/>
</g>
<g id="clust2" class="cluster">
<title>cluster_AppModule_declarations</title>
<polygon fill="none" stroke="black" points="2820,-40.8 2820,-92.8 5292,-92.8 5292,-40.8 2820,-40.8"/>
</g>
<g id="clust20" class="cluster">
<title>cluster_AppModule_imports</title>
<polygon fill="none" stroke="black" points="16,-40.8 16,-92.8 2812,-92.8 2812,-40.8 16,-40.8"/>
</g>
<g id="clust22" class="cluster">
<title>cluster_AppModule_bootstrap</title>
<polygon fill="none" stroke="black" points="2621,-170.8 2621,-222.8 2745,-222.8 2745,-170.8 2621,-170.8"/>
</g>
<!-- AppComponent -->
<g id="node1" class="node">
<title>AppComponent</title>
<polygon fill="#ffffb3" stroke="black" points="5283.94,-84.8 5178.06,-84.8 5178.06,-48.8 5283.94,-48.8 5283.94,-84.8"/>
<text text-anchor="middle" x="5231" y="-62.6" font-family="Times,serif" font-size="14.00">AppComponent</text>
</g>
<!-- AppModule -->
<g id="node18" class="node">
<title>AppModule</title>
<polygon fill="#8dd3c7" stroke="black" points="2724.66,-149.8 2721.66,-153.8 2700.66,-153.8 2697.66,-149.8 2641.34,-149.8 2641.34,-113.8 2724.66,-113.8 2724.66,-149.8"/>
<text text-anchor="middle" x="2683" y="-127.6" font-family="Times,serif" font-size="14.00">AppModule</text>
</g>
<!-- AppComponent&#45;&gt;AppModule -->
<g id="edge1" class="edge">
<title>AppComponent&#45;&gt;AppModule</title>
<path fill="none" stroke="black" d="M5231,-85.18C5231,-109.08 5231,-147.8 5231,-147.8 5231,-147.8 2734.84,-147.8 2734.84,-147.8"/>
<polygon fill="black" stroke="black" points="2734.84,-144.3 2724.84,-147.8 2734.84,-151.3 2734.84,-144.3"/>
</g>
<!-- UserComponent -->
<g id="node2" class="node">
<title>UserComponent</title>
<polygon fill="#ffffb3" stroke="black" points="5159.77,-84.8 5052.23,-84.8 5052.23,-48.8 5159.77,-48.8 5159.77,-84.8"/>
<text text-anchor="middle" x="5106" y="-62.6" font-family="Times,serif" font-size="14.00">UserComponent</text>
</g>
<!-- UserComponent&#45;&gt;AppModule -->
<g id="edge2" class="edge">
<title>UserComponent&#45;&gt;AppModule</title>
<path fill="none" stroke="black" d="M5106,-85.12C5106,-108.46 5106,-145.8 5106,-145.8 5106,-145.8 2734.8,-145.8 2734.8,-145.8"/>
<polygon fill="black" stroke="black" points="2734.8,-142.3 2724.8,-145.8 2734.8,-149.3 2734.8,-142.3"/>
</g>
<!-- ProfilComponent -->
<g id="node3" class="node">
<title>ProfilComponent</title>
<polygon fill="#ffffb3" stroke="black" points="5034.72,-84.8 4921.28,-84.8 4921.28,-48.8 5034.72,-48.8 5034.72,-84.8"/>
<text text-anchor="middle" x="4978" y="-62.6" font-family="Times,serif" font-size="14.00">ProfilComponent</text>
</g>
<!-- ProfilComponent&#45;&gt;AppModule -->
<g id="edge3" class="edge">
<title>ProfilComponent&#45;&gt;AppModule</title>
<path fill="none" stroke="black" d="M4978,-85.05C4978,-107.82 4978,-143.8 4978,-143.8 4978,-143.8 2734.79,-143.8 2734.79,-143.8"/>
<polygon fill="black" stroke="black" points="2734.79,-140.3 2724.79,-143.8 2734.79,-147.3 2734.79,-140.3"/>
</g>
<!-- AgePipe -->
<g id="node4" class="node">
<title>AgePipe</title>
<polygon fill="#ffffb3" stroke="black" points="4903.21,-84.8 4838.79,-84.8 4838.79,-48.8 4903.21,-48.8 4903.21,-84.8"/>
<text text-anchor="middle" x="4871" y="-62.6" font-family="Times,serif" font-size="14.00">AgePipe</text>
</g>
<!-- AgePipe&#45;&gt;AppModule -->
<g id="edge4" class="edge">
<title>AgePipe&#45;&gt;AppModule</title>
<path fill="none" stroke="black" d="M4871,-84.96C4871,-107.15 4871,-141.8 4871,-141.8 4871,-141.8 2734.75,-141.8 2734.75,-141.8"/>
<polygon fill="black" stroke="black" points="2734.75,-138.3 2724.75,-141.8 2734.75,-145.3 2734.75,-138.3"/>
</g>
<!-- RegisterComponent -->
<g id="node5" class="node">
<title>RegisterComponent</title>
<polygon fill="#ffffb3" stroke="black" points="4820.99,-84.8 4693.01,-84.8 4693.01,-48.8 4820.99,-48.8 4820.99,-84.8"/>
<text text-anchor="middle" x="4757" y="-62.6" font-family="Times,serif" font-size="14.00">RegisterComponent</text>
</g>
<!-- RegisterComponent&#45;&gt;AppModule -->
<g id="edge5" class="edge">
<title>RegisterComponent&#45;&gt;AppModule</title>
<path fill="none" stroke="black" d="M4757,-84.84C4757,-106.46 4757,-139.8 4757,-139.8 4757,-139.8 2734.9,-139.8 2734.9,-139.8"/>
<polygon fill="black" stroke="black" points="2734.9,-136.3 2724.9,-139.8 2734.9,-143.3 2734.9,-136.3"/>
</g>
<!-- UserModalComponent -->
<g id="node6" class="node">
<title>UserModalComponent</title>
<polygon fill="#ffffb3" stroke="black" points="4675.32,-84.8 4530.68,-84.8 4530.68,-48.8 4675.32,-48.8 4675.32,-84.8"/>
<text text-anchor="middle" x="4603" y="-62.6" font-family="Times,serif" font-size="14.00">UserModalComponent</text>
</g>
<!-- UserModalComponent&#45;&gt;AppModule -->
<g id="edge6" class="edge">
<title>UserModalComponent&#45;&gt;AppModule</title>
<path fill="none" stroke="black" d="M4603,-85.08C4603,-106.12 4603,-137.8 4603,-137.8 4603,-137.8 2734.89,-137.8 2734.89,-137.8"/>
<polygon fill="black" stroke="black" points="2734.89,-134.3 2724.89,-137.8 2734.89,-141.3 2734.89,-134.3"/>
</g>
<!-- DirectoryComponent -->
<g id="node7" class="node">
<title>DirectoryComponent</title>
<polygon fill="#ffffb3" stroke="black" points="4512.47,-84.8 4377.53,-84.8 4377.53,-48.8 4512.47,-48.8 4512.47,-84.8"/>
<text text-anchor="middle" x="4445" y="-62.6" font-family="Times,serif" font-size="14.00">DirectoryComponent</text>
</g>
<!-- DirectoryComponent&#45;&gt;AppModule -->
<g id="edge7" class="edge">
<title>DirectoryComponent&#45;&gt;AppModule</title>
<path fill="none" stroke="black" d="M4445,-84.93C4445,-105.37 4445,-135.8 4445,-135.8 4445,-135.8 2734.82,-135.8 2734.82,-135.8"/>
<polygon fill="black" stroke="black" points="2734.82,-132.3 2724.82,-135.8 2734.82,-139.3 2734.82,-132.3"/>
</g>
<!-- DirectoryModalComponent -->
<g id="node8" class="node">
<title>DirectoryModalComponent</title>
<polygon fill="#ffffb3" stroke="black" points="4359.53,-84.8 4188.47,-84.8 4188.47,-48.8 4359.53,-48.8 4359.53,-84.8"/>
<text text-anchor="middle" x="4274" y="-62.6" font-family="Times,serif" font-size="14.00">DirectoryModalComponent</text>
</g>
<!-- DirectoryModalComponent&#45;&gt;AppModule -->
<g id="edge8" class="edge">
<title>DirectoryModalComponent&#45;&gt;AppModule</title>
<path fill="none" stroke="black" d="M4274,-85.11C4274,-104.95 4274,-133.8 4274,-133.8 4274,-133.8 2734.74,-133.8 2734.74,-133.8"/>
<polygon fill="black" stroke="black" points="2734.74,-130.3 2724.74,-133.8 2734.74,-137.3 2734.74,-130.3"/>
</g>
<!-- WeatherComponent -->
<g id="node9" class="node">
<title>WeatherComponent</title>
<polygon fill="#ffffb3" stroke="black" points="4170.24,-84.8 4041.76,-84.8 4041.76,-48.8 4170.24,-48.8 4170.24,-84.8"/>
<text text-anchor="middle" x="4106" y="-62.6" font-family="Times,serif" font-size="14.00">WeatherComponent</text>
</g>
<!-- WeatherComponent&#45;&gt;AppModule -->
<g id="edge9" class="edge">
<title>WeatherComponent&#45;&gt;AppModule</title>
<path fill="none" stroke="black" d="M4106,-84.91C4106,-104.14 4106,-131.8 4106,-131.8 4106,-131.8 2734.82,-131.8 2734.82,-131.8"/>
<polygon fill="black" stroke="black" points="2734.82,-128.3 2724.82,-131.8 2734.82,-135.3 2734.82,-128.3"/>
</g>
<!-- LoginComponent -->
<g id="node10" class="node">
<title>LoginComponent</title>
<polygon fill="#ffffb3" stroke="black" points="4023.27,-84.8 3908.73,-84.8 3908.73,-48.8 4023.27,-48.8 4023.27,-84.8"/>
<text text-anchor="middle" x="3966" y="-62.6" font-family="Times,serif" font-size="14.00">LoginComponent</text>
</g>
<!-- LoginComponent&#45;&gt;AppModule -->
<g id="edge10" class="edge">
<title>LoginComponent&#45;&gt;AppModule</title>
<path fill="none" stroke="black" d="M3966,-85.02C3966,-103.63 3966,-129.8 3966,-129.8 3966,-129.8 2734.96,-129.8 2734.96,-129.8"/>
<polygon fill="black" stroke="black" points="2734.96,-126.3 2724.96,-129.8 2734.96,-133.3 2734.96,-126.3"/>
</g>
<!-- WeatherModalComponent -->
<g id="node11" class="node">
<title>WeatherModalComponent</title>
<polygon fill="#ffffb3" stroke="black" points="3890.79,-84.8 3725.21,-84.8 3725.21,-48.8 3890.79,-48.8 3890.79,-84.8"/>
<text text-anchor="middle" x="3808" y="-62.6" font-family="Times,serif" font-size="14.00">WeatherModalComponent</text>
</g>
<!-- WeatherModalComponent&#45;&gt;AppModule -->
<g id="edge11" class="edge">
<title>WeatherModalComponent&#45;&gt;AppModule</title>
<path fill="none" stroke="black" d="M3808,-85.1C3808,-103.07 3808,-127.8 3808,-127.8 3808,-127.8 2734.71,-127.8 2734.71,-127.8"/>
<polygon fill="black" stroke="black" points="2734.71,-124.3 2724.71,-127.8 2734.71,-131.3 2734.71,-124.3"/>
</g>
<!-- OverviewComponent -->
<g id="node12" class="node">
<title>OverviewComponent</title>
<polygon fill="#ffffb3" stroke="black" points="3707.03,-84.8 3570.97,-84.8 3570.97,-48.8 3707.03,-48.8 3707.03,-84.8"/>
<text text-anchor="middle" x="3639" y="-62.6" font-family="Times,serif" font-size="14.00">OverviewComponent</text>
</g>
<!-- OverviewComponent&#45;&gt;AppModule -->
<g id="edge12" class="edge">
<title>OverviewComponent&#45;&gt;AppModule</title>
<path fill="none" stroke="black" d="M3639,-84.82C3639,-102.17 3639,-125.8 3639,-125.8 3639,-125.8 2734.69,-125.8 2734.69,-125.8"/>
<polygon fill="black" stroke="black" points="2734.69,-122.3 2724.69,-125.8 2734.69,-129.3 2734.69,-122.3"/>
</g>
<!-- ChatroomComponent -->
<g id="node13" class="node">
<title>ChatroomComponent</title>
<polygon fill="#ffffb3" stroke="black" points="3552.82,-84.8 3415.18,-84.8 3415.18,-48.8 3552.82,-48.8 3552.82,-84.8"/>
<text text-anchor="middle" x="3484" y="-62.6" font-family="Times,serif" font-size="14.00">ChatroomComponent</text>
</g>
<!-- ChatroomComponent&#45;&gt;AppModule -->
<g id="edge13" class="edge">
<title>ChatroomComponent&#45;&gt;AppModule</title>
<path fill="none" stroke="black" d="M3484,-84.84C3484,-101.53 3484,-123.8 3484,-123.8 3484,-123.8 2734.94,-123.8 2734.94,-123.8"/>
<polygon fill="black" stroke="black" points="2734.94,-120.3 2724.94,-123.8 2734.94,-127.3 2734.94,-120.3"/>
</g>
<!-- ChatComponent -->
<g id="node14" class="node">
<title>ChatComponent</title>
<polygon fill="#ffffb3" stroke="black" points="3396.77,-84.8 3289.23,-84.8 3289.23,-48.8 3396.77,-48.8 3396.77,-84.8"/>
<text text-anchor="middle" x="3343" y="-62.6" font-family="Times,serif" font-size="14.00">ChatComponent</text>
</g>
<!-- ChatComponent&#45;&gt;AppModule -->
<g id="edge14" class="edge">
<title>ChatComponent&#45;&gt;AppModule</title>
<path fill="none" stroke="black" d="M3343,-84.81C3343,-100.85 3343,-121.8 3343,-121.8 3343,-121.8 2734.79,-121.8 2734.79,-121.8"/>
<polygon fill="black" stroke="black" points="2734.79,-118.3 2724.79,-121.8 2734.79,-125.3 2734.79,-118.3"/>
</g>
<!-- TopbarchatComponent -->
<g id="node15" class="node">
<title>TopbarchatComponent</title>
<polygon fill="#ffffb3" stroke="black" points="3271.58,-84.8 3126.42,-84.8 3126.42,-48.8 3271.58,-48.8 3271.58,-84.8"/>
<text text-anchor="middle" x="3199" y="-62.6" font-family="Times,serif" font-size="14.00">TopbarchatComponent</text>
</g>
<!-- TopbarchatComponent&#45;&gt;AppModule -->
<g id="edge15" class="edge">
<title>TopbarchatComponent&#45;&gt;AppModule</title>
<path fill="none" stroke="black" d="M3199,-85.04C3199,-100.37 3199,-119.8 3199,-119.8 3199,-119.8 2734.79,-119.8 2734.79,-119.8"/>
<polygon fill="black" stroke="black" points="2734.79,-116.3 2724.79,-119.8 2734.79,-123.3 2734.79,-116.3"/>
</g>
<!-- ChatModalComponent -->
<g id="node16" class="node">
<title>ChatModalComponent</title>
<polygon fill="#ffffb3" stroke="black" points="3108.32,-84.8 2963.68,-84.8 2963.68,-48.8 3108.32,-48.8 3108.32,-84.8"/>
<text text-anchor="middle" x="3036" y="-62.6" font-family="Times,serif" font-size="14.00">ChatModalComponent</text>
</g>
<!-- ChatModalComponent&#45;&gt;AppModule -->
<g id="edge16" class="edge">
<title>ChatModalComponent&#45;&gt;AppModule</title>
<path fill="none" stroke="black" d="M3036,-84.92C3036,-99.58 3036,-117.8 3036,-117.8 3036,-117.8 2734.88,-117.8 2734.88,-117.8"/>
<polygon fill="black" stroke="black" points="2734.88,-114.3 2724.88,-117.8 2734.88,-121.3 2734.88,-114.3"/>
</g>
<!-- FinderComponent -->
<g id="node17" class="node">
<title>FinderComponent</title>
<polygon fill="#ffffb3" stroke="black" points="2945.88,-84.8 2828.12,-84.8 2828.12,-48.8 2945.88,-48.8 2945.88,-84.8"/>
<text text-anchor="middle" x="2887" y="-62.6" font-family="Times,serif" font-size="14.00">FinderComponent</text>
</g>
<!-- FinderComponent&#45;&gt;AppModule -->
<g id="edge17" class="edge">
<title>FinderComponent&#45;&gt;AppModule</title>
<path fill="none" stroke="black" d="M2887,-85.05C2887,-98.98 2887,-115.8 2887,-115.8 2887,-115.8 2734.77,-115.8 2734.77,-115.8"/>
<polygon fill="black" stroke="black" points="2734.77,-112.3 2724.77,-115.8 2734.77,-119.3 2734.77,-112.3"/>
</g>
<!-- AppComponent  -->
<g id="node38" class="node">
<title>AppComponent </title>
<polygon fill="#80b1d3" stroke="black" points="2737.44,-214.8 2628.56,-214.8 2628.56,-178.8 2737.44,-178.8 2737.44,-214.8"/>
<text text-anchor="middle" x="2683" y="-192.6" font-family="Times,serif" font-size="14.00">AppComponent </text>
</g>
<!-- AppModule&#45;&gt;AppComponent  -->
<g id="edge37" class="edge">
<title>AppModule&#45;&gt;AppComponent </title>
<path fill="none" stroke="black" stroke-dasharray="1,5" d="M2683,-149.91C2683,-149.91 2683,-168.79 2683,-168.79"/>
<polygon fill="black" stroke="black" points="2679.5,-168.79 2683,-178.79 2686.5,-168.79 2679.5,-168.79"/>
</g>
<!-- BrowserModule -->
<g id="node19" class="node">
<title>BrowserModule</title>
<polygon fill="#8dd3c7" stroke="black" points="2804.49,-84.8 2801.49,-88.8 2780.49,-88.8 2777.49,-84.8 2697.51,-84.8 2697.51,-48.8 2804.49,-48.8 2804.49,-84.8"/>
<text text-anchor="middle" x="2751" y="-62.6" font-family="Times,serif" font-size="14.00">BrowserModule</text>
</g>
<!-- BrowserModule&#45;&gt;AppModule -->
<g id="edge18" class="edge">
<title>BrowserModule&#45;&gt;AppModule</title>
<path fill="none" stroke="black" d="M2711.17,-84.91C2711.17,-84.91 2711.17,-103.79 2711.17,-103.79"/>
<polygon fill="black" stroke="black" points="2707.67,-103.79 2711.17,-113.79 2714.67,-103.79 2707.67,-103.79"/>
</g>
<!-- AppRoutingModule -->
<g id="node20" class="node">
<title>AppRoutingModule</title>
<polygon fill="#8dd3c7" stroke="black" points="2679.28,-84.8 2676.28,-88.8 2655.28,-88.8 2652.28,-84.8 2550.72,-84.8 2550.72,-48.8 2679.28,-48.8 2679.28,-84.8"/>
<text text-anchor="middle" x="2615" y="-62.6" font-family="Times,serif" font-size="14.00">AppRoutingModule</text>
</g>
<!-- AppRoutingModule&#45;&gt;AppModule -->
<g id="edge19" class="edge">
<title>AppRoutingModule&#45;&gt;AppModule</title>
<path fill="none" stroke="black" d="M2660.28,-84.91C2660.28,-84.91 2660.28,-103.79 2660.28,-103.79"/>
<polygon fill="black" stroke="black" points="2656.78,-103.79 2660.28,-113.79 2663.78,-103.79 2656.78,-103.79"/>
</g>
<!-- BrowserAnimationsModule -->
<g id="node21" class="node">
<title>BrowserAnimationsModule</title>
<polygon fill="#8dd3c7" stroke="black" points="2532.32,-84.8 2529.32,-88.8 2508.32,-88.8 2505.32,-84.8 2359.68,-84.8 2359.68,-48.8 2532.32,-48.8 2532.32,-84.8"/>
<text text-anchor="middle" x="2446" y="-62.6" font-family="Times,serif" font-size="14.00">BrowserAnimationsModule</text>
</g>
<!-- BrowserAnimationsModule&#45;&gt;AppModule -->
<g id="edge20" class="edge">
<title>BrowserAnimationsModule&#45;&gt;AppModule</title>
<path fill="none" stroke="black" d="M2446,-85.05C2446,-98.98 2446,-115.8 2446,-115.8 2446,-115.8 2631.17,-115.8 2631.17,-115.8"/>
<polygon fill="black" stroke="black" points="2631.17,-119.3 2641.17,-115.8 2631.17,-112.3 2631.17,-119.3"/>
</g>
<!-- HttpClientModule -->
<g id="node22" class="node">
<title>HttpClientModule</title>
<polygon fill="#8dd3c7" stroke="black" points="2342.16,-84.8 2339.16,-88.8 2318.16,-88.8 2315.16,-84.8 2223.84,-84.8 2223.84,-48.8 2342.16,-48.8 2342.16,-84.8"/>
<text text-anchor="middle" x="2283" y="-62.6" font-family="Times,serif" font-size="14.00">HttpClientModule</text>
</g>
<!-- HttpClientModule&#45;&gt;AppModule -->
<g id="edge21" class="edge">
<title>HttpClientModule&#45;&gt;AppModule</title>
<path fill="none" stroke="black" d="M2283,-84.92C2283,-99.58 2283,-117.8 2283,-117.8 2283,-117.8 2631.32,-117.8 2631.32,-117.8"/>
<polygon fill="black" stroke="black" points="2631.33,-121.3 2641.32,-117.8 2631.32,-114.3 2631.33,-121.3"/>
</g>
<!-- MatCardModule -->
<g id="node23" class="node">
<title>MatCardModule</title>
<polygon fill="#8dd3c7" stroke="black" points="2205.82,-84.8 2202.82,-88.8 2181.82,-88.8 2178.82,-84.8 2096.18,-84.8 2096.18,-48.8 2205.82,-48.8 2205.82,-84.8"/>
<text text-anchor="middle" x="2151" y="-62.6" font-family="Times,serif" font-size="14.00">MatCardModule</text>
</g>
<!-- MatCardModule&#45;&gt;AppModule -->
<g id="edge22" class="edge">
<title>MatCardModule&#45;&gt;AppModule</title>
<path fill="none" stroke="black" d="M2151,-85.04C2151,-100.37 2151,-119.8 2151,-119.8 2151,-119.8 2631.25,-119.8 2631.25,-119.8"/>
<polygon fill="black" stroke="black" points="2631.25,-123.3 2641.25,-119.8 2631.25,-116.3 2631.25,-123.3"/>
</g>
<!-- MatIconModule -->
<g id="node24" class="node">
<title>MatIconModule</title>
<polygon fill="#8dd3c7" stroke="black" points="2078.48,-84.8 2075.48,-88.8 2054.48,-88.8 2051.48,-84.8 1971.52,-84.8 1971.52,-48.8 2078.48,-48.8 2078.48,-84.8"/>
<text text-anchor="middle" x="2025" y="-62.6" font-family="Times,serif" font-size="14.00">MatIconModule</text>
</g>
<!-- MatIconModule&#45;&gt;AppModule -->
<g id="edge23" class="edge">
<title>MatIconModule&#45;&gt;AppModule</title>
<path fill="none" stroke="black" d="M2025,-84.81C2025,-100.85 2025,-121.8 2025,-121.8 2025,-121.8 2631.09,-121.8 2631.09,-121.8"/>
<polygon fill="black" stroke="black" points="2631.09,-125.3 2641.09,-121.8 2631.09,-118.3 2631.09,-125.3"/>
</g>
<!-- MatInputModule -->
<g id="node25" class="node">
<title>MatInputModule</title>
<polygon fill="#8dd3c7" stroke="black" points="1953.66,-84.8 1950.66,-88.8 1929.66,-88.8 1926.66,-84.8 1842.34,-84.8 1842.34,-48.8 1953.66,-48.8 1953.66,-84.8"/>
<text text-anchor="middle" x="1898" y="-62.6" font-family="Times,serif" font-size="14.00">MatInputModule</text>
</g>
<!-- MatInputModule&#45;&gt;AppModule -->
<g id="edge24" class="edge">
<title>MatInputModule&#45;&gt;AppModule</title>
<path fill="none" stroke="black" d="M1898,-84.84C1898,-101.53 1898,-123.8 1898,-123.8 1898,-123.8 2631.07,-123.8 2631.07,-123.8"/>
<polygon fill="black" stroke="black" points="2631.07,-127.3 2641.07,-123.8 2631.07,-120.3 2631.07,-127.3"/>
</g>
<!-- MatDatepickerModule -->
<g id="node26" class="node">
<title>MatDatepickerModule</title>
<polygon fill="#8dd3c7" stroke="black" points="1823.51,-84.8 1820.51,-88.8 1799.51,-88.8 1796.51,-84.8 1680.49,-84.8 1680.49,-48.8 1823.51,-48.8 1823.51,-84.8"/>
<text text-anchor="middle" x="1752" y="-62.6" font-family="Times,serif" font-size="14.00">MatDatepickerModule</text>
</g>
<!-- MatDatepickerModule&#45;&gt;AppModule -->
<g id="edge25" class="edge">
<title>MatDatepickerModule&#45;&gt;AppModule</title>
<path fill="none" stroke="black" d="M1752,-84.82C1752,-102.17 1752,-125.8 1752,-125.8 1752,-125.8 2631.19,-125.8 2631.19,-125.8"/>
<polygon fill="black" stroke="black" points="2631.19,-129.3 2641.19,-125.8 2631.19,-122.3 2631.19,-129.3"/>
</g>
<!-- MatFormFieldModule -->
<g id="node27" class="node">
<title>MatFormFieldModule</title>
<polygon fill="#8dd3c7" stroke="black" points="1662.72,-84.8 1659.72,-88.8 1638.72,-88.8 1635.72,-84.8 1521.28,-84.8 1521.28,-48.8 1662.72,-48.8 1662.72,-84.8"/>
<text text-anchor="middle" x="1592" y="-62.6" font-family="Times,serif" font-size="14.00">MatFormFieldModule</text>
</g>
<!-- MatFormFieldModule&#45;&gt;AppModule -->
<g id="edge26" class="edge">
<title>MatFormFieldModule&#45;&gt;AppModule</title>
<path fill="none" stroke="black" d="M1592,-85.1C1592,-103.07 1592,-127.8 1592,-127.8 1592,-127.8 2631.23,-127.8 2631.23,-127.8"/>
<polygon fill="black" stroke="black" points="2631.23,-131.3 2641.23,-127.8 2631.23,-124.3 2631.23,-131.3"/>
</g>
<!-- ReactiveFormsModule -->
<g id="node28" class="node">
<title>ReactiveFormsModule</title>
<polygon fill="#8dd3c7" stroke="black" points="1503.31,-84.8 1500.31,-88.8 1479.31,-88.8 1476.31,-84.8 1358.69,-84.8 1358.69,-48.8 1503.31,-48.8 1503.31,-84.8"/>
<text text-anchor="middle" x="1431" y="-62.6" font-family="Times,serif" font-size="14.00">ReactiveFormsModule</text>
</g>
<!-- ReactiveFormsModule&#45;&gt;AppModule -->
<g id="edge27" class="edge">
<title>ReactiveFormsModule&#45;&gt;AppModule</title>
<path fill="none" stroke="black" d="M1431,-85.02C1431,-103.63 1431,-129.8 1431,-129.8 1431,-129.8 2630.99,-129.8 2630.99,-129.8"/>
<polygon fill="black" stroke="black" points="2630.99,-133.3 2640.99,-129.8 2630.99,-126.3 2630.99,-133.3"/>
</g>
<!-- FormsModule -->
<g id="node29" class="node">
<title>FormsModule</title>
<polygon fill="#8dd3c7" stroke="black" points="1340.84,-84.8 1337.84,-88.8 1316.84,-88.8 1313.84,-84.8 1245.16,-84.8 1245.16,-48.8 1340.84,-48.8 1340.84,-84.8"/>
<text text-anchor="middle" x="1293" y="-62.6" font-family="Times,serif" font-size="14.00">FormsModule</text>
</g>
<!-- FormsModule&#45;&gt;AppModule -->
<g id="edge28" class="edge">
<title>FormsModule&#45;&gt;AppModule</title>
<path fill="none" stroke="black" d="M1293,-84.91C1293,-104.14 1293,-131.8 1293,-131.8 1293,-131.8 2631.02,-131.8 2631.02,-131.8"/>
<polygon fill="black" stroke="black" points="2631.02,-135.3 2641.02,-131.8 2631.02,-128.3 2631.02,-135.3"/>
</g>
<!-- MatAutocompleteModule -->
<g id="node30" class="node">
<title>MatAutocompleteModule</title>
<polygon fill="#8dd3c7" stroke="black" points="1227.91,-84.8 1224.91,-88.8 1203.91,-88.8 1200.91,-84.8 1066.09,-84.8 1066.09,-48.8 1227.91,-48.8 1227.91,-84.8"/>
<text text-anchor="middle" x="1147" y="-62.6" font-family="Times,serif" font-size="14.00">MatAutocompleteModule</text>
</g>
<!-- MatAutocompleteModule&#45;&gt;AppModule -->
<g id="edge29" class="edge">
<title>MatAutocompleteModule&#45;&gt;AppModule</title>
<path fill="none" stroke="black" d="M1147,-85.11C1147,-104.95 1147,-133.8 1147,-133.8 1147,-133.8 2631.12,-133.8 2631.12,-133.8"/>
<polygon fill="black" stroke="black" points="2631.12,-137.3 2641.12,-133.8 2631.12,-130.3 2631.12,-137.3"/>
</g>
<!-- MatButtonModule -->
<g id="node31" class="node">
<title>MatButtonModule</title>
<polygon fill="#8dd3c7" stroke="black" points="1048.22,-84.8 1045.22,-88.8 1024.22,-88.8 1021.22,-84.8 927.78,-84.8 927.78,-48.8 1048.22,-48.8 1048.22,-84.8"/>
<text text-anchor="middle" x="988" y="-62.6" font-family="Times,serif" font-size="14.00">MatButtonModule</text>
</g>
<!-- MatButtonModule&#45;&gt;AppModule -->
<g id="edge30" class="edge">
<title>MatButtonModule&#45;&gt;AppModule</title>
<path fill="none" stroke="black" d="M988,-84.93C988,-105.37 988,-135.8 988,-135.8 988,-135.8 2631.1,-135.8 2631.1,-135.8"/>
<polygon fill="black" stroke="black" points="2631.1,-139.3 2641.1,-135.8 2631.1,-132.3 2631.1,-139.3"/>
</g>
<!-- CommonModule -->
<g id="node32" class="node">
<title>CommonModule</title>
<polygon fill="#8dd3c7" stroke="black" points="909.67,-84.8 906.67,-88.8 885.67,-88.8 882.67,-84.8 798.33,-84.8 798.33,-48.8 909.67,-48.8 909.67,-84.8"/>
<text text-anchor="middle" x="854" y="-62.6" font-family="Times,serif" font-size="14.00">CommonModule</text>
</g>
<!-- CommonModule&#45;&gt;AppModule -->
<g id="edge31" class="edge">
<title>CommonModule&#45;&gt;AppModule</title>
<path fill="none" stroke="black" d="M854,-85.08C854,-106.12 854,-137.8 854,-137.8 854,-137.8 2630.92,-137.8 2630.92,-137.8"/>
<polygon fill="black" stroke="black" points="2630.92,-141.3 2640.92,-137.8 2630.92,-134.3 2630.92,-141.3"/>
</g>
<!-- MatDialogModule -->
<g id="node33" class="node">
<title>MatDialogModule</title>
<polygon fill="#8dd3c7" stroke="black" points="780.21,-84.8 777.21,-88.8 756.21,-88.8 753.21,-84.8 659.79,-84.8 659.79,-48.8 780.21,-48.8 780.21,-84.8"/>
<text text-anchor="middle" x="720" y="-62.6" font-family="Times,serif" font-size="14.00">MatDialogModule</text>
</g>
<!-- MatDialogModule&#45;&gt;AppModule -->
<g id="edge32" class="edge">
<title>MatDialogModule&#45;&gt;AppModule</title>
<path fill="none" stroke="black" d="M720,-84.84C720,-106.46 720,-139.8 720,-139.8 720,-139.8 2631.09,-139.8 2631.09,-139.8"/>
<polygon fill="black" stroke="black" points="2631.09,-143.3 2641.09,-139.8 2631.09,-136.3 2631.09,-143.3"/>
</g>
<!-- MatProgressSpinnerModule -->
<g id="node34" class="node">
<title>MatProgressSpinnerModule</title>
<polygon fill="#8dd3c7" stroke="black" points="641.88,-84.8 638.88,-88.8 617.88,-88.8 614.88,-84.8 468.12,-84.8 468.12,-48.8 641.88,-48.8 641.88,-84.8"/>
<text text-anchor="middle" x="555" y="-62.6" font-family="Times,serif" font-size="14.00">MatProgressSpinnerModule</text>
</g>
<!-- MatProgressSpinnerModule&#45;&gt;AppModule -->
<g id="edge33" class="edge">
<title>MatProgressSpinnerModule&#45;&gt;AppModule</title>
<path fill="none" stroke="black" d="M555,-84.96C555,-107.15 555,-141.8 555,-141.8 555,-141.8 2630.97,-141.8 2630.97,-141.8"/>
<polygon fill="black" stroke="black" points="2630.97,-145.3 2640.97,-141.8 2630.97,-138.3 2630.97,-145.3"/>
</g>
<!-- MatSidenavModule -->
<g id="node35" class="node">
<title>MatSidenavModule</title>
<polygon fill="#8dd3c7" stroke="black" points="449.71,-84.8 446.71,-88.8 425.71,-88.8 422.71,-84.8 322.29,-84.8 322.29,-48.8 449.71,-48.8 449.71,-84.8"/>
<text text-anchor="middle" x="386" y="-62.6" font-family="Times,serif" font-size="14.00">MatSidenavModule</text>
</g>
<!-- MatSidenavModule&#45;&gt;AppModule -->
<g id="edge34" class="edge">
<title>MatSidenavModule&#45;&gt;AppModule</title>
<path fill="none" stroke="black" d="M386,-85.05C386,-107.82 386,-143.8 386,-143.8 386,-143.8 2631.17,-143.8 2631.17,-143.8"/>
<polygon fill="black" stroke="black" points="2631.17,-147.3 2641.17,-143.8 2631.17,-140.3 2631.17,-147.3"/>
</g>
<!-- MatToolbarModule -->
<g id="node36" class="node">
<title>MatToolbarModule</title>
<polygon fill="#8dd3c7" stroke="black" points="304.42,-84.8 301.42,-88.8 280.42,-88.8 277.42,-84.8 177.58,-84.8 177.58,-48.8 304.42,-48.8 304.42,-84.8"/>
<text text-anchor="middle" x="241" y="-62.6" font-family="Times,serif" font-size="14.00">MatToolbarModule</text>
</g>
<!-- MatToolbarModule&#45;&gt;AppModule -->
<g id="edge35" class="edge">
<title>MatToolbarModule&#45;&gt;AppModule</title>
<path fill="none" stroke="black" d="M241,-85.12C241,-108.46 241,-145.8 241,-145.8 241,-145.8 2631.13,-145.8 2631.13,-145.8"/>
<polygon fill="black" stroke="black" points="2631.13,-149.3 2641.13,-145.8 2631.13,-142.3 2631.13,-149.3"/>
</g>
<!-- MatSnackBarModule -->
<g id="node37" class="node">
<title>MatSnackBarModule</title>
<polygon fill="#8dd3c7" stroke="black" points="160.03,-84.8 157.03,-88.8 136.03,-88.8 133.03,-84.8 23.97,-84.8 23.97,-48.8 160.03,-48.8 160.03,-84.8"/>
<text text-anchor="middle" x="92" y="-62.6" font-family="Times,serif" font-size="14.00">MatSnackBarModule</text>
</g>
<!-- MatSnackBarModule&#45;&gt;AppModule -->
<g id="edge36" class="edge">
<title>MatSnackBarModule&#45;&gt;AppModule</title>
<path fill="none" stroke="black" d="M92,-85.18C92,-109.08 92,-147.8 92,-147.8 92,-147.8 2631.25,-147.8 2631.25,-147.8"/>
<polygon fill="black" stroke="black" points="2631.25,-151.3 2641.25,-147.8 2631.25,-144.3 2631.25,-151.3"/>
</g>
</g>
</svg>
